<svg width="1601" height="6398" viewBox="0 0 1601 6398" fill="none" xmlns="http://www.w3.org/2000/svg">
<path d="M1067 8C1405 210.5 1600.2 631.4 1591 991C1575.06 1614 831.52 1969.22 536 2119C207.5 2285.5 8.99978 2380.5 9 2629.5C9.00025 2906.5 182 2952.5 546 3199C736.524 3328.02 1281.5 3664.5 1426 3962.5C1536.56 4190.5 1388.5 4481.5 873.5 4481.5C252.5 4481.5 9.00045 4803 9.00022 5040C9 5277 145.5 5520.4 873.5 5661C1206.5 5725.31 1568 5818.94 1568 6174.5C1568 6603.5 717.167 7292 254.5 7704.5" stroke="#FF0000" stroke-width="18"/>
</svg>
